<?xml version="1.0" standalone="no"?><!DOCTYPE svg PUBLIC "-//W3C//DTD SVG 1.1//EN" "http://www.w3.org/Graphics/SVG/1.1/DTD/svg11.dtd"><svg t="1542097697788" class="icon" style="" viewBox="0 0 1024 1024" version="1.1" xmlns="http://www.w3.org/2000/svg" p-id="1230" xmlns:xlink="http://www.w3.org/1999/xlink" width="200" height="200"><defs><style type="text/css"></style></defs><path d="M880.64 498.0736c0-59.8016-34.4064-111.4112-84.3776-135.9872C790.528 209.7152 666.0096 87.6544 512 87.6544S233.472 209.7152 227.7376 362.0864C177.7664 386.6624 143.36 438.272 143.36 498.0736c0 75.3664 54.0672 137.6256 126.1568 149.9136 13.9264 2.4576 26.2144-8.192 26.2144-22.1184V370.2784c0-13.9264-12.288-24.576-26.2144-22.1184-1.6384 0-4.096 0.8192-5.7344 0.8192C274.432 222.0032 381.7472 122.0608 512 122.0608s237.568 99.9424 248.2176 227.7376c-1.6384-0.8192-4.096-0.8192-5.7344-0.8192-13.9264-2.4576-26.2144 8.192-26.2144 22.1184v254.7712c0 10.6496 8.192 20.48 18.0224 22.1184-6.5536 22.9376-27.8528 40.1408-54.0672 40.1408h-61.44c-4.9152-10.6496-15.5648-18.0224-27.8528-18.0224h-60.6208c-17.2032 0-31.1296 13.9264-31.1296 31.1296 0 17.2032 13.9264 31.1296 31.1296 31.1296h60.6208c12.288 0 22.1184-7.3728 27.8528-17.2032H692.224c42.5984 0 77.824-31.1296 82.7392-72.0896C836.4032 622.592 880.64 565.248 880.64 498.0736z" p-id="1231" fill="#cdcdcd"></path></svg>