<?xml version="1.0" standalone="no"?><!DOCTYPE svg PUBLIC "-//W3C//DTD SVG 1.1//EN" "http://www.w3.org/Graphics/SVG/1.1/DTD/svg11.dtd"><svg t="1542097669683" class="icon" style="" viewBox="0 0 1024 1024" version="1.1" xmlns="http://www.w3.org/2000/svg" p-id="569" xmlns:xlink="http://www.w3.org/1999/xlink" width="200" height="200"><defs><style type="text/css"></style></defs><path d="M872.448 306.176c-22.528 8.192-45.568 9.728-69.12 4.608-64.512-14.848-104.448-78.848-90.112-143.36 1.024-5.12 2.56-9.728 4.608-14.848 1.536-4.608 1.024-7.168-3.584-9.216-17.92-8.192-35.328-16.896-53.76-24.576-11.776-5.12-24.576-8.192-36.352-12.288-23.04 47.616-59.392 74.752-112.128 74.752-52.736 0-89.088-27.136-112.128-74.752-33.28 9.216-65.536 22.528-95.744 39.424 17.408 49.664 10.752 94.72-26.624 132.096-37.376 37.376-82.432 43.52-131.584 26.112-16.896 30.208-30.208 61.952-39.424 95.744 47.104 22.528 74.24 58.88 74.752 111.104 0.512 53.248-27.136 89.6-74.752 112.64 9.216 33.28 22.528 65.536 39.424 95.744 47.616-16.896 91.648-11.264 128.512 23.04 39.936 37.376 47.104 83.456 29.696 135.168 30.208 17.408 61.952 30.208 95.744 39.424 23.04-47.104 59.392-74.24 112.128-74.24 52.736 0 89.088 27.648 112.128 74.752 33.28-9.216 65.536-22.528 95.744-39.424-17.408-49.664-10.752-94.208 26.112-131.584 37.376-37.376 82.432-44.032 132.096-26.624 17.408-30.208 30.208-61.952 39.424-95.744-47.616-23.04-74.752-59.904-74.752-113.152 0.512-52.224 27.648-88.064 74.752-110.592-8.704-32.256-21.504-63.488-37.888-93.184-2.56-3.584-4.608-1.536-7.168-1.024zM958.464 389.12c5.632 19.968-4.096 40.448-22.528 49.664-34.816 16.896-50.176 38.912-50.688 72.704-0.512 34.304 15.36 57.344 50.688 74.24 18.432 8.704 28.16 29.696 22.528 49.664-10.24 36.864-24.576 72.192-43.52 105.472-10.24 17.92-31.744 26.112-51.2 18.944-36.864-12.8-64-7.68-87.552 16.384-24.064 24.064-29.184 51.2-16.384 87.552 6.656 19.456-1.024 40.96-18.944 51.2-33.28 18.944-68.608 33.792-105.472 43.52-19.968 5.632-40.96-4.096-49.664-22.528-16.896-34.816-39.424-50.176-73.728-50.176-33.792 0-56.832 15.36-73.728 50.688-8.704 18.432-29.696 27.648-49.152 22.528-36.864-9.728-72.192-24.576-105.472-43.52-17.92-10.24-26.112-31.744-19.456-51.2 12.8-37.888 7.168-65.536-18.432-90.112-23.552-22.016-50.176-26.624-85.504-14.336-19.456 6.656-40.96-1.024-51.2-18.944-18.944-33.28-33.792-68.608-43.52-105.472-5.632-19.968 4.096-40.96 22.528-49.664 34.816-16.896 50.688-39.936 50.688-74.24 0-33.792-15.872-56.32-50.176-72.704-18.432-8.704-28.16-29.696-22.528-49.664 10.24-36.864 24.576-72.192 43.52-105.472 10.24-17.92 31.744-26.112 51.2-19.456 36.352 12.8 63.488 7.68 87.552-16.384 24.064-24.064 29.184-51.2 16.384-87.552-6.656-19.456 1.536-40.96 18.944-51.2 33.28-18.944 68.608-33.792 105.472-43.52 19.968-5.632 40.96 4.096 49.664 22.528C455.68 122.88 478.208 138.24 512.512 138.24c33.792 0 56.32-15.36 73.728-50.688 9.216-19.456 31.744-28.672 51.712-22.016 2.56 1.024 5.12 1.536 9.216 3.072l7.68 2.56c9.216 3.072 15.872 5.12 22.528 8.192 10.24 4.096 17.92 7.68 34.816 15.872 10.24 4.608 14.336 6.656 19.968 9.216 25.088 11.264 35.328 36.864 26.112 62.464-15.872 44.544 9.216 91.136 55.296 101.888 14.848 3.584 29.184 2.56 45.056-3.072l4.608-1.536c5.12-1.536 10.752-2.56 17.408-2.048 16.896 1.536 29.696 11.264 36.864 24.064 16.896 32.768 31.232 67.072 40.96 102.912z m-435.712-69.12c-112.128 0-202.752 90.624-202.752 202.752 0 112.128 90.624 202.752 202.752 202.752 112.128 0 202.752-90.624 202.752-202.752 0-41.472-12.8-81.92-36.352-115.712-6.656-9.728-19.968-11.776-29.696-5.12-9.216 6.656-11.776 19.968-5.12 29.184 50.176 72.704 32.256 172.032-39.936 222.72-72.704 50.176-172.032 32.256-222.72-39.936-50.176-72.704-32.256-172.032 39.936-222.72 45.056-31.232 102.912-37.376 153.6-15.872 10.752 4.608 23.552-0.512 28.16-11.264 4.608-10.752-0.512-23.552-11.264-28.16-25.6-10.752-52.224-15.872-79.36-15.872z" p-id="570"></path></svg>