<?xml version="1.0" standalone="no"?><!DOCTYPE svg PUBLIC "-//W3C//DTD SVG 1.1//EN" "http://www.w3.org/Graphics/SVG/1.1/DTD/svg11.dtd"><svg t="1542097676641" class="icon" style="" viewBox="0 0 1024 1024" version="1.1" xmlns="http://www.w3.org/2000/svg" p-id="679" xmlns:xlink="http://www.w3.org/1999/xlink" width="200" height="200"><defs><style type="text/css"></style></defs><path d="M392.6060791 708.51794434q14.08996583 0 26.69677735 5.19104003t22.24731445 14.4607544 14.83154297 21.87652587 5.19104004 26.69677735-5.19104004 26.69677734-14.83154297 21.87652588-22.24731445 14.83154297-26.69677734 5.56182862q-14.83154297 0-27.06756593-5.56182862t-21.87652587-14.83154297-14.83154297-21.87652588-5.19104004-26.69677734 5.19104004-26.69677735 14.83154297-21.87652587 21.87652587-14.4607544 27.06756593-5.19104004zM701.10217286 710.00109864q14.08996583 0 27.06756591 5.19104003t22.24731446 14.4607544 14.83154296 21.87652587 5.56182861 26.69677734-5.56182861 26.69677735-14.83154296 21.87652588-22.24731446 14.83154297-27.06756592 5.56182861-26.69677735-5.56182861-21.87652587-14.83154297-14.83154297-21.87652588-5.56182861-26.69677735 5.56182861-26.69677734 14.83154297-21.87652587 21.87652587-14.4607544 26.69677735-5.19104004zM825.68713379 288.78527832q20.76416016 0 32.25860595 5.56182861t16.31469727 13.71917725 4.44946289 17.42706299-2.59552002 15.94390869-9.26971436 27.4383545-15.94390869 45.60699462-17.42706298 49.31488038-12.9776001 38.56201171q-9.64050293 29.66308594-24.4720459 41.15753174t-36.33728027 11.4944458l-25.21362305 0-48.20251465 0-63.03405761 0-68.96667481 0-183.91113281 0 11.12365722 66.74194336 373.75488282 0q35.59570313 0 35.59570312 30.40466309 0 14.83154297-7.04498291 25.58441162t-27.80914306 10.75286865l-35.59570312 0-68.96667481 0-85.28137208 0-86.76452636 0-71.19140625 0-40.78674317 0q-14.83154297 0-24.84283447-6.67419433t-16.68548584-17.42706299-10.75286865-23.35968018-6.30340576-23.73046875q-0.74157715-4.44946289-4.07867432-21.50573731t-8.15734863-42.64068603-10.75286866-57.10144043-11.86523437-63.40484619q-14.08996583-74.899292-31.88781738-166.8548584l-55.61828614 0q-11.12365723 0-18.53942871-5.56182862t-12.23602294-13.34838867-6.67419434-16.68548584-1.85394287-16.31469726q0-14.83154297 10.0112915-24.4720459t27.06756592-9.64050293l16.31469727 0 14.83154296 0 18.53942871 0 25.21362305 0q14.83154297 0 23.73046875 4.44946289t14.08996582 11.12365723 7.41577149 14.08996582 3.70788573 12.60681153q1.4831543 5.93261719 2.9663086 16.68548583t2.96630859 21.87652588q2.22473145 13.34838867 4.44946289 28.17993165l507.23876953 0z" p-id="680" fill="#cdcdcd"></path></svg>